<svg width="1417" height="915" viewBox="0 0 1417 915" fill="none" xmlns="http://www.w3.org/2000/svg">
<g id="newimage">
<g clip-path="url(#clip0)">
<rect width="1414.18" height="912.825" transform="matrix(-0.999999 -0.0012918 -0.0012918 0.999999 1416.18 2.00153)" fill="#2E7EF0"/>
<g id="Slimming - Vector-01 1">
<g clip-path="url(#clip1)">
<g id="images" opacity="0.5">
<g id="Group" opacity="0.5">
<g id="apple" opacity="0.5">
<g id="Group_2">
<path id="Vector" d="M1165.58 152.373C1165.58 152.373 1133.86 133.775 1113.78 163.436L1165.58 152.373Z" fill="#95C7EB"/>
</g>
<g id="Group_3">
<path id="Vector_2" d="M1165.55 152.345C1165.55 152.345 1148.21 181.384 1113.75 163.409L1165.55 152.345Z" fill="#95C7EB"/>
</g>
<g id="Group_4">
<path id="Vector_3" d="M1161.86 252.952C1185.09 270.607 1217.04 275.187 1230.63 272.255C1239.57 270.348 1246.19 264.629 1250.72 258.983C1257.05 251.113 1265.86 245.145 1276.22 241.719C1283.64 239.266 1291.57 235.128 1295.93 228.03C1305.57 212.319 1306.5 159.254 1258.08 137.042C1209.59 114.76 1184.42 163.067 1184.42 163.067C1184.42 163.067 1138.15 170.426 1135.79 203.28L1135.87 203.227C1136.69 201.328 1138.2 199.632 1140.25 198.247C1146.38 194.091 1155.44 195.125 1160.35 200.541C1162.05 202.416 1163.05 204.647 1163.35 206.798C1169.82 204.548 1177.51 206.172 1182.16 211.311C1187.7 217.422 1186.64 226.204 1179.63 230.946C1178.38 231.799 1176.99 232.513 1175.5 232.965C1175.62 233.104 1175.75 233.242 1175.87 233.381C1180.78 238.797 1179.77 246.652 1173.63 250.808C1170.12 252.96 1165.8 253.649 1161.86 252.952Z" fill="#7A92D6"/>
</g>
<g id="Group_5">
<path id="Vector_4" d="M1239.92 270.479C1243.46 268.082 1246.65 265.022 1249.64 261.317C1255.55 253.959 1263.88 248.311 1273.56 245.119C1283.61 241.784 1291.02 236.653 1295.1 230.083C1301.11 220.185 1303.55 198.485 1296.09 177.773C1291.26 164.46 1280.32 146.215 1255.77 134.946C1235.71 125.683 1216.17 126.815 1199.41 138.164C1187.45 146.263 1180.39 157.099 1178.17 160.955C1173.37 161.963 1159.45 165.231 1147.49 173.33C1135.69 181.322 1129.28 191.486 1128.44 203.593L1131.71 206.083L1131.62 206.819L1132.23 206.516L1132.62 206.809L1132.84 206.772L1132.69 206.319L1135.3 204.998C1135.99 203.521 1137.09 202.214 1138.51 201.255C1143.15 198.112 1149.95 198.887 1153.66 202.984C1154.91 204.372 1155.71 205.958 1155.92 207.725L1160.7 210.2C1165.89 208.365 1171.88 209.796 1175.4 213.684C1179.74 218.475 1178.86 225.347 1173.43 229.023C1172.49 229.663 1171.34 230.217 1170.21 230.648L1169.13 235.631L1169.2 235.7C1172.91 239.797 1172.15 245.687 1167.51 248.831C1165.07 250.482 1161.83 251.109 1158.67 250.561L1155.77 255.772C1169.51 266.181 1184.8 271.287 1195.18 273.779C1207.59 276.689 1219.7 277.449 1227.68 275.744C1231.96 274.863 1236.14 273.037 1239.92 270.479ZM1255.82 246.83C1251.25 249.92 1247.26 253.635 1243.92 257.799C1238.77 264.31 1232.57 268.396 1225.84 269.931C1214.09 272.513 1188.01 268.665 1167.1 255.943C1168.75 255.385 1170.35 254.634 1171.77 253.675C1178.46 249.146 1180.28 241.074 1176.51 234.667C1176.91 234.401 1177.36 234.204 1177.75 233.937C1186.17 228.236 1187.55 217.56 1180.82 210.13C1176.23 205.061 1168.85 202.663 1161.74 203.782C1161.08 202.212 1160.12 200.733 1158.99 199.483C1153.71 193.651 1144.74 191.881 1137.47 194.787C1140.07 188.546 1144.81 182.985 1151.73 178.297C1164.79 169.452 1181.01 166.758 1181.15 166.774L1183.67 165.069C1183.69 164.946 1190.6 151.976 1203.66 143.131C1218.29 133.221 1234.71 132.293 1252.48 140.423C1274.93 150.766 1284.92 167.409 1289.31 179.676C1296.67 200.004 1293.49 219.75 1288.84 227.376C1285.65 232.677 1279.43 236.886 1270.89 239.647C1265.51 241.274 1260.38 243.74 1255.82 246.83Z" fill="#253244"/>
</g>
<g id="Group_6">
<path id="Vector_5" d="M1151.37 136.232L1156.76 132.583L1183.62 162.285L1178.24 165.935L1151.37 136.232Z" fill="#253244"/>
</g>
<g id="Group_7">
<path id="Vector_6" d="M1166.48 155.346L1167.48 149.847C1167.21 149.691 1143.1 135.839 1122.38 149.876C1118.04 152.811 1114.07 156.848 1110.78 161.773L1114.73 166.277L1166.48 155.346ZM1126.78 154.744C1136.71 148.019 1147.77 149.281 1155.19 151.438L1122.14 158.454C1123.68 157.071 1125.21 155.811 1126.78 154.744Z" fill="#253244"/>
</g>
<g id="Group_8">
<path id="Vector_7" d="M1156.91 165.713C1164.55 160.536 1168.4 154.115 1168.57 153.885L1164.6 149.503L1112.83 160.558L1111.98 166.074C1132.75 176.801 1147.92 171.798 1156.91 165.713ZM1156.98 157.364C1155.75 158.533 1154.3 159.74 1152.64 160.861C1144.13 166.625 1134.49 167.77 1124.06 164.397L1156.98 157.364Z" fill="#253244"/>
</g>
</g>
<g id="waist" opacity="0.5">
<g id="Group_9">
<path id="Vector_8" d="M855.93 385.927L911.245 414.325L966.56 442.723C966.56 442.723 928.022 484.015 922.686 526.928C920.247 546.483 913.245 565.455 901.381 582.449L900.05 584.354L820.907 543.723L741.764 503.092L743.094 501.187C754.958 484.193 771.205 469.863 790.1 458.86C831.604 434.515 855.93 385.927 855.93 385.927Z" fill="#E2B89D"/>
</g>
<g id="Group_10">
<path id="Vector_9" d="M741.63 503.091L899.911 584.35L904.751 583.212L906.081 581.307C917.998 564.237 925.33 545.125 927.844 524.47C933.03 482.931 970.503 442.337 970.907 441.924L970.142 437.39L859.516 380.596L854.494 382.159C854.26 382.66 830.233 430.157 789.986 453.696C769.89 465.427 753.707 479.996 741.844 496.99L740.514 498.895L741.63 503.091ZM900.742 577.531L748.332 499.286C759.59 483.327 774.91 469.661 793.805 458.658C830.062 437.522 853.024 399.002 859.249 387.602L963.152 440.944C954.375 451.034 925.626 486.583 921.025 523.971C918.586 543.526 911.69 561.517 900.742 577.531Z" fill="#253244"/>
</g>
<g id="Group_11">
<path id="Vector_10" d="M768.26 471.427L835.634 506.165L852.929 515.082L920.303 549.819C920.303 549.819 917.064 558.854 913.469 565.71C913.469 565.71 885.679 542.462 852.772 555.509L832.207 544.906L814.912 535.989L794.347 525.385C792.147 494.237 755.231 484.124 755.231 484.124C760.547 478.155 768.26 471.427 768.26 471.427Z" fill="#D24190"/>
</g>
<g id="Group_12">
<path id="Vector_11" d="M792.49 528.09L850.879 558.179L854.092 558.262C872.954 550.787 890 556.007 901.093 561.723C907.198 564.869 910.908 567.934 910.908 567.934L916.559 566.862C920.26 559.858 923.445 550.909 923.573 550.556L922.045 547.042L770.181 468.784L765.862 469.284C765.561 469.549 757.905 476.193 752.484 482.311L754.056 487.105C754.056 487.105 758.946 488.472 765.052 491.618C776.059 497.29 789.541 507.803 790.801 525.647L792.49 528.09ZM853.088 551.978L797.708 523.44C795.577 503.993 780.966 492.585 768.841 486.336C765.831 484.785 763.144 483.61 761.005 482.823C763.861 479.891 766.889 477.048 768.746 475.384L915.966 551.249C915.087 553.522 913.661 557.086 912.009 560.638C910.192 559.387 907.72 557.903 904.71 556.352C892.671 550.149 874.002 544.408 853.088 551.978Z" fill="#253244"/>
</g>
<g id="Group_13">
<path id="Vector_12" d="M777.814 444.687C815.185 427.695 835.624 390.919 836.505 389.325L830.342 386.867C830.08 387.244 810.113 423.341 774.935 439.313L777.814 444.687Z" fill="#253244"/>
</g>
<g id="Group_14">
<path id="Vector_13" d="M942.041 529.852L948.936 529.616C948.639 495.263 976.166 463.06 976.46 462.802L971.031 459.288C969.867 460.634 941.785 493.472 942.041 529.852Z" fill="#253244"/>
</g>
<g id="Group_15">
<path id="Vector_14" d="M845.659 492.324L865.532 487.846L867.09 493.509L847.218 497.986L845.659 492.324Z" fill="#253244"/>
</g>
<g id="Group_16">
<path id="Vector_15" d="M850.574 485.22L857.572 483.65L862.278 500.657L855.279 502.227L850.574 485.22Z" fill="#253244"/>
</g>
</g>
<g id="cupdrink" opacity="0.5">
<g id="Group_17">
<path id="Vector_16" d="M74.1909 805.923L105.042 755.273L220.431 831.346L197.545 868.92L176.725 903.1L43.34 856.572L74.1909 805.923Z" fill="white"/>
</g>
<g id="Group_18">
<path id="Vector_17" d="M84.8489 871.063L176.967 903.224L220.589 831.601L141.974 779.712C145.016 782.744 144.97 788.752 142.457 792.878C139.392 797.912 132.889 800.038 127.84 797.508C132.808 799.997 134.417 806.081 131.351 811.114C128.285 816.148 121.833 818.191 116.784 815.661C121.751 818.15 123.36 824.234 120.245 829.35C117.179 834.383 110.726 836.427 105.678 833.897C110.645 836.386 112.254 842.47 109.138 847.586C106.072 852.619 99.6198 854.663 94.571 852.133C99.5384 854.622 101.147 860.706 98.0819 865.739C95.1359 870.402 89.5669 872.565 84.8489 871.063Z" fill="#7A92D6"/>
</g>
<g id="Group_19">
<path id="Vector_18" d="M179.756 904.617L223.362 833.017L222.547 828.947L143.959 777.074L139.403 782.112C141.312 784.038 141.45 788.521 139.591 791.573C137.481 795.038 133.005 796.455 129.587 794.742L126.12 800.434C129.539 802.147 130.599 806.339 128.489 809.803C126.379 813.268 121.903 814.685 118.484 812.972L115.018 818.664C118.437 820.377 119.496 824.569 117.386 828.033C115.276 831.498 110.801 832.915 107.382 831.202L103.915 836.894C107.334 838.607 108.394 842.799 106.284 846.263C104.174 849.728 99.6982 851.145 96.2793 849.432L92.8129 855.124C96.2319 856.837 97.2915 861.029 95.1816 864.493C93.3228 867.545 89.4359 869.043 86.204 868.069L83.5516 874.169L175.637 906.321L179.756 904.617ZM216.138 832.841L175.647 899.327L96.7259 871.727C98.2814 870.569 99.7434 869.04 100.798 867.308C103.009 863.679 103.39 859.563 102.173 856.154C106.053 855.191 109.64 852.79 111.851 849.161C114.061 845.531 114.442 841.416 113.275 837.924C117.155 836.961 120.743 834.56 122.953 830.931C125.163 827.301 125.545 823.186 124.378 819.694C128.258 818.731 131.845 816.33 134.055 812.701C136.266 809.071 136.647 804.956 135.43 801.546C139.31 800.584 142.897 798.183 145.158 794.47C146.464 792.326 147.15 789.978 147.41 787.632L216.138 832.841Z" fill="#253244"/>
</g>
<g id="juice">
<path id="Vector_19" d="M179.495 904.485L223.246 832.657L222.428 828.574L107.052 752.51L102.235 753.768L40.5399 855.056L42.0113 859.465L175.331 906.071L179.495 904.485ZM215.998 832.481L175.372 899.179L48.0906 854.735L105.854 759.902L215.998 832.481Z" fill="#253244"/>
</g>
<g id="Group_20">
<path id="Vector_20" d="M177.029 838.757L178.05 832.357C177.195 832.36 92.1671 827.769 49.4709 825.598C33.1416 824.76 17.0823 833.452 8.41391 847.683L-8.36856 875.236L-2.73405 878.059L13.998 850.589C21.2553 838.675 34.7481 831.396 48.4815 832.122C91.1465 834.17 176.092 838.72 177.029 838.757Z" fill="#253244"/>
</g>
<g id="Group_21">
<path id="Vector_21" d="M101.903 799.537L105.371 793.844L110.745 796.537L107.278 802.23L101.903 799.537Z" fill="#253244"/>
</g>
<g id="Group_22">
<path id="Vector_22" d="M81.3403 851.361L84.8079 845.668L90.1822 848.361L86.7147 854.054L81.3403 851.361Z" fill="#253244"/>
</g>
<g id="Group_23">
<path id="Vector_23" d="M125.279 863.944L128.747 858.251L134.121 860.944L130.653 866.637L125.279 863.944Z" fill="#253244"/>
</g>
<g id="Group_24">
<path id="Vector_24" d="M152.302 852.681L155.769 846.988L161.144 849.681L157.676 855.374L152.302 852.681Z" fill="#253244"/>
</g>
<g id="Group_25">
<path id="Vector_25" d="M143.302 810.935L146.769 805.242L152.143 807.935L148.676 813.628L143.302 810.935Z" fill="#253244"/>
</g>
<g id="Group_26">
<path id="Vector_26" d="M163.324 878.404L166.791 872.71L172.166 875.404L168.698 881.097L163.324 878.404Z" fill="#253244"/>
</g>
<g id="Group_27">
<path id="Vector_27" d="M189.119 847.136L192.586 841.443L197.96 844.136L194.493 849.83L189.119 847.136Z" fill="#253244"/>
</g>
</g>
<g id="hamburger" opacity="0.5">
<g id="Group_28">
<path id="Vector_28" d="M390.784 261.11L500.845 174.206C506.951 169.385 507.851 161.114 502.852 155.756L493.792 146.045L361.52 250.486L370.58 260.198C375.718 265.562 384.678 265.931 390.784 261.11Z" fill="#7A92D6"/>
</g>
<g id="Group_29">
<path id="Vector_29" d="M335.231 221.865L467.24 117.668C438.927 87.3312 388.007 84.9343 353.5 112.171L346.644 117.582C311.985 144.94 306.98 191.595 335.231 221.865Z" fill="#7A92D6"/>
</g>
<g id="Group_30">
<path id="Vector_30" d="M362.019 250.393L493.689 146.409C497.279 143.574 497.805 138.735 494.867 135.585C491.928 132.435 486.65 132.179 483.06 135.014L351.39 238.998C347.801 241.833 347.274 246.672 350.213 249.822C353.152 252.972 358.43 253.227 362.019 250.393Z" fill="white"/>
</g>
<g id="Group_31">
<path id="Vector_31" d="M392.982 263.437L503.016 176.56C510.57 170.595 511.691 160.292 505.506 153.664L496.448 143.956L491.591 143.721L359.352 248.13L358.868 252.582L367.926 262.29C374.249 268.925 385.428 269.401 392.982 263.437ZM493.369 150.456L500.303 157.888C504.114 161.972 503.436 168.205 498.781 171.88L388.672 258.817C384.017 262.492 377.217 262.164 373.406 258.08L366.472 250.648L493.369 150.456Z" fill="#0B0B0B"/>
</g>
<g id="Group_32">
<path id="Vector_32" d="M337.418 224.194L469.413 120.009L469.896 115.566C440.463 84.031 387.27 81.4605 351.32 109.836L344.465 115.247C308.515 143.623 303.213 192.364 332.646 223.899L337.418 224.194ZM462.368 117.563L335.781 217.479C311.087 188.47 316.612 145.354 348.754 119.984L355.609 114.573C387.751 89.2033 434.932 90.7177 462.368 117.563Z" fill="#253244"/>
</g>
<g id="Group_33">
<path id="Vector_33" d="M364.223 252.717L495.857 148.769C500.897 144.79 501.568 137.976 497.505 133.621C493.442 129.266 485.944 128.903 480.981 132.822L349.347 236.77C344.307 240.75 343.636 247.563 347.699 251.919C351.762 256.274 359.184 256.697 364.223 252.717ZM485.294 137.446C487.432 135.757 490.487 135.905 492.237 137.781C493.987 139.657 493.682 142.458 491.544 144.146L359.91 248.094C357.773 249.782 354.718 249.634 352.967 247.758C351.217 245.882 351.522 243.082 353.66 241.393L485.294 137.446Z" fill="#253244"/>
</g>
<g id="Group_34">
<path id="Vector_34" d="M492.88 122.739L493.112 130.234C493.273 135.806 487.993 140.092 482.016 139.227L481.398 139.134C475.422 138.269 470.141 142.555 470.303 148.127C470.464 153.7 465.184 157.986 459.207 157.121L458.589 157.027C452.613 156.163 447.333 160.449 447.494 166.021C447.655 171.593 442.375 175.879 436.398 175.015L435.781 174.921C429.804 174.057 424.524 178.343 424.685 183.915C424.846 189.487 419.566 193.773 413.589 192.909L412.972 192.815C406.995 191.95 401.715 196.236 401.876 201.809C402.038 207.381 396.757 211.667 390.781 210.803L390.163 210.709C384.186 209.844 378.906 214.13 379.067 219.703C379.229 225.275 373.948 229.561 367.972 228.696L367.354 228.602C361.378 227.738 356.097 232.024 356.258 237.596C356.42 243.169 351.139 247.455 345.163 246.59L336.715 245.35C334.383 244.982 332.259 243.984 330.697 242.309C325.323 236.549 325.986 227.883 332.169 223.001L469.258 114.754C475.441 109.872 484.853 110.583 490.227 116.343L490.352 116.477C491.997 118.667 492.824 120.69 492.88 122.739Z" fill="#D24190"/>
</g>
<g id="Group_35">
<path id="Vector_35" d="M355.321 247.506C358.374 245.096 360.01 241.594 359.919 237.945C359.897 236.218 360.632 234.59 362.006 233.506C363.38 232.421 365.101 231.993 366.954 232.274L367.571 232.368C371.354 232.87 375.226 231.907 378.126 229.617C381.178 227.207 382.815 223.705 382.723 220.056C382.702 218.328 383.437 216.701 384.811 215.616C386.184 214.532 387.905 214.103 389.758 214.385L390.376 214.478C394.158 214.981 398.03 214.017 400.93 211.727C403.983 209.317 405.619 205.815 405.528 202.166C405.507 200.438 406.242 198.811 407.615 197.727C408.989 196.642 410.71 196.214 412.563 196.495L413.18 196.589C416.963 197.091 420.835 196.127 423.735 193.838C426.787 191.427 428.424 187.926 428.332 184.276C428.311 182.549 429.046 180.922 430.42 179.837C431.793 178.753 433.514 178.324 435.367 178.606L435.985 178.699C439.767 179.202 443.639 178.238 446.539 175.948C449.592 173.538 451.228 170.036 451.137 166.387C451.116 164.659 451.851 163.032 453.224 161.948C454.598 160.863 456.319 160.435 458.172 160.716L458.789 160.81C462.572 161.312 466.444 160.348 469.344 158.059C472.396 155.648 474.033 152.147 473.942 148.497C473.92 146.77 474.655 145.143 476.029 144.058C477.403 142.974 479.123 142.545 480.976 142.827L481.594 142.92C485.376 143.423 489.248 142.459 492.148 140.169C495.201 137.759 496.837 134.257 496.746 130.608L496.515 123.115C496.465 120.363 495.291 117.685 493.355 115.609L493.23 115.475C486.67 108.444 475.115 107.566 467.483 113.591L330.421 221.813C322.789 227.838 321.981 238.478 328.541 245.509C330.602 247.719 333.379 249.132 336.467 249.601L344.913 250.84C348.473 250.82 352.421 249.796 355.321 247.506ZM357.633 228.818C354.58 231.229 352.944 234.73 353.035 238.38C353.056 240.107 352.321 241.734 350.948 242.819C349.574 243.904 347.853 244.332 346.063 244.118L337.617 242.878C336.104 242.677 334.584 241.9 333.584 240.829C329.398 236.342 329.778 229.647 334.509 225.911L471.572 117.69C476.304 113.954 483.556 114.624 487.742 119.11L487.867 119.244C488.866 120.316 489.422 121.621 489.471 123.095L489.702 130.587C489.724 132.315 488.989 133.942 487.615 135.026C486.241 136.111 484.52 136.539 482.73 136.325L482.112 136.231C478.33 135.729 474.458 136.693 471.558 138.982C468.505 141.393 466.869 144.894 466.96 148.544C466.982 150.271 466.247 151.898 464.873 152.983C463.499 154.067 461.778 154.496 459.988 154.282L459.37 154.188C455.588 153.685 451.716 154.649 448.816 156.939C445.763 159.349 444.127 162.851 444.218 166.5C444.24 168.228 443.505 169.855 442.131 170.939C440.757 172.024 439.036 172.452 437.246 172.238L436.628 172.144C432.846 171.642 428.974 172.606 426.074 174.895C423.021 177.306 421.385 180.807 421.476 184.457C421.498 186.184 420.762 187.811 419.389 188.896C418.015 189.981 416.294 190.409 414.504 190.195L413.886 190.101C410.104 189.598 406.232 190.562 403.332 192.852C400.279 195.262 398.643 198.764 398.734 202.413C398.755 204.141 398.02 205.768 396.647 206.852C395.273 207.937 393.552 208.365 391.762 208.151L391.144 208.057C387.362 207.555 383.49 208.519 380.59 210.808C377.537 213.219 375.901 216.72 375.992 220.37C376.013 222.097 375.278 223.724 373.905 224.809C372.531 225.894 370.81 226.322 369.02 226.108L368.402 226.014C364.419 225.438 360.609 226.468 357.633 228.818Z" fill="#253244"/>
</g>
</g>
<g id="dumbell" opacity="0.5">
<g id="Group_36">
<path id="Vector_36" d="M975.917 786.329L1197.35 786.615C1205.31 786.625 1211.76 781.045 1211.77 774.146C1211.78 767.247 1205.34 761.649 1197.38 761.639L975.949 761.353C967.99 761.343 961.536 766.923 961.527 773.822C961.518 780.721 967.958 786.319 975.917 786.329Z" fill="#253244"/>
</g>
<g id="Group_37">
<path id="Vector_37" d="M975.913 789.386L1197.35 789.672C1207.22 789.685 1215.29 782.709 1215.3 774.15C1215.31 765.592 1207.26 758.595 1197.39 758.582L975.953 758.296C966.08 758.283 958.012 765.26 958.001 773.818C957.99 782.377 966.04 789.374 975.913 789.386ZM1197.38 764.608C1203.42 764.616 1208.25 768.901 1208.25 774.054C1208.24 779.294 1203.3 783.567 1197.35 783.559L975.921 783.273C969.876 783.265 965.046 778.98 965.053 773.827C965.06 768.587 970.002 764.314 975.945 764.322L1197.38 764.608Z" fill="#253244"/>
</g>
<g id="Group_38">
<g id="Group_39">
<path id="Vector_38" d="M1143.99 837.985C1151.95 837.996 1158.3 832.415 1158.31 825.603L1158.44 722.551C1158.45 715.652 1152.01 710.141 1144.15 710.131C1136.2 710.121 1129.84 715.702 1129.83 722.514L1129.7 825.566C1129.69 832.378 1136.13 837.975 1143.99 837.985Z" fill="#7A92D6"/>
</g>
<g id="Group_40">
<path id="Vector_39" d="M1172.73 818.809C1180.69 818.819 1187.04 813.238 1187.05 806.426L1187.13 739.792C1187.14 732.893 1180.7 727.382 1172.84 727.372C1164.89 727.362 1158.53 732.943 1158.52 739.755L1158.44 806.389C1158.43 813.288 1164.87 818.799 1172.73 818.809Z" fill="#7A92D6"/>
</g>
</g>
<g id="Group_41">
<g id="Group_42">
<path id="Vector_40" d="M1031.86 837.841C1023.9 837.83 1017.56 832.233 1017.57 825.421L1017.71 722.369C1017.72 715.47 1024.17 709.976 1032.03 709.986C1039.99 709.997 1046.33 715.594 1046.32 722.406L1046.19 825.458C1046.18 832.27 1039.82 837.851 1031.86 837.841Z" fill="#7A92D6"/>
</g>
<g id="Group_43">
<path id="Vector_41" d="M1003.18 818.59C995.217 818.58 988.878 812.982 988.887 806.17L988.973 739.536C988.982 732.637 995.436 727.143 1003.29 727.153C1011.25 727.163 1017.59 732.761 1017.58 739.573L1017.5 806.207C1017.59 813.106 1011.13 818.6 1003.18 818.59Z" fill="#7A92D6"/>
</g>
</g>
<g id="Group_44">
<g id="Group_45">
<path id="Vector_42" d="M1143.99 840.955C1153.86 840.967 1161.83 834.079 1161.84 825.52L1161.97 722.468C1161.98 713.91 1154.03 707 1144.16 706.987C1134.29 706.975 1126.32 713.864 1126.31 722.422L1126.17 825.474C1126.16 834.032 1134.21 840.942 1143.99 840.955ZM1144.15 713.101C1150.09 713.108 1155.03 717.307 1155.02 722.547L1154.89 825.598C1154.88 830.751 1150.04 835.024 1143.99 835.016C1138.05 835.008 1133.12 830.81 1133.13 825.57L1133.26 722.518C1133.37 717.279 1138.21 713.093 1144.15 713.101Z" fill="#253244"/>
</g>
<g id="Group_46">
<path id="Vector_43" d="M1172.72 821.865C1182.6 821.878 1190.56 814.989 1190.57 806.431L1190.66 739.796C1190.67 731.238 1182.72 724.328 1172.85 724.316C1162.98 724.303 1155.01 731.192 1155 739.75L1154.91 806.385C1154.9 814.943 1162.95 821.853 1172.72 821.865ZM1172.84 730.341C1178.78 730.349 1183.72 734.547 1183.71 739.787L1183.62 806.422C1183.62 811.574 1178.77 815.847 1172.73 815.839C1166.79 815.832 1161.86 811.634 1161.86 806.394L1161.95 739.759C1161.95 734.607 1166.9 730.334 1172.84 730.341Z" fill="#253244"/>
</g>
</g>
<g id="Group_47">
<g id="Group_48">
<path id="Vector_44" d="M1031.86 840.81C1041.73 840.823 1049.7 833.934 1049.71 825.375L1049.84 722.323C1049.86 713.765 1041.91 706.855 1032.03 706.843C1022.16 706.83 1014.19 713.719 1014.18 722.277L1014.05 825.329C1014.04 833.888 1021.99 840.797 1031.86 840.81ZM1032.02 712.956C1037.97 712.963 1042.9 717.162 1042.89 722.402L1042.76 825.453C1042.75 830.606 1037.91 834.879 1031.87 834.871C1025.92 834.864 1020.99 830.665 1021 825.425L1021.13 722.374C1021.14 717.134 1026.08 712.948 1032.02 712.956Z" fill="#253244"/>
</g>
<g id="Group_49">
<path id="Vector_45" d="M1003.17 821.647C1013.05 821.659 1021.01 814.77 1021.02 806.212L1021.11 739.577C1021.12 731.019 1013.17 724.109 1003.3 724.097C993.425 724.084 985.458 730.973 985.447 739.531L985.36 806.166C985.349 814.724 993.4 821.634 1003.17 821.647ZM1003.29 730.123C1009.23 730.13 1014.17 734.329 1014.16 739.568L1014.07 806.203C1014.07 811.356 1009.22 815.629 1003.18 815.621C997.236 815.613 992.305 811.415 992.312 806.175L992.398 739.54C992.405 734.388 997.346 730.115 1003.29 730.123Z" fill="#253244"/>
</g>
</g>
</g>
<g id="beer" opacity="0.5">
<g id="Group_50">
<path id="Vector_46" d="M550.384 722.443L612.438 790.323L695.589 733.462L633.535 665.582C637.797 672.891 635.824 681.879 628.222 687.077C622.814 690.775 615.964 691.64 609.715 689.959C610.179 695.483 607.61 701.171 602.203 704.869C596.795 708.567 589.945 709.432 583.696 707.752C584.16 713.275 581.591 718.964 576.184 722.662C568.582 727.86 557.937 727.5 550.697 722.228L550.384 722.443Z" fill="white"/>
</g>
<g id="Group_51">
<path id="Vector_47" d="M614.65 792.74L697.799 735.881L698.33 731.586L636.278 663.708L630.428 666.921C634.103 673.17 632.264 680.494 626.073 684.727C621.763 687.675 616.06 688.541 610.787 687.092L606.32 690.147C606.734 694.919 604.365 699.572 600.133 702.465C595.823 705.413 590.12 706.28 584.847 704.83L580.38 707.885C580.794 712.657 578.425 717.31 574.193 720.204C568.08 724.384 559.134 724.211 552.999 719.868L548.629 719.824L548.315 720.039L547.784 724.334L609.773 792.143L614.65 792.74ZM690.711 732.864L612.969 786.026L560.964 729.138C567.051 729.806 573.396 728.387 578.412 724.958C583.349 721.582 586.393 716.692 587.124 711.361C593.289 711.976 599.493 710.542 604.43 707.166C609.367 703.79 612.411 698.9 613.142 693.57C619.308 694.184 625.511 692.75 630.449 689.374C635.307 686.051 638.258 681.338 639.037 676.199L690.79 732.811L690.711 732.864Z" fill="#253244"/>
</g>
<g id="Group_52">
<path id="Vector_48" d="M614.761 792.742L697.802 735.955L698.332 731.666L615.599 641.163L610.651 640.62L527.61 697.406L527.08 701.696L609.813 792.199L614.761 792.742ZM690.723 732.943L613.083 786.036L534.704 700.296L612.345 647.203L690.723 732.943Z" fill="#253244"/>
</g>
<g id="Group_53">
<path id="Vector_49" d="M611.754 790.141L695.414 732.867L705.902 744.353L622.241 801.627L611.754 790.141Z" fill="white"/>
</g>
<g id="Group_54">
<path id="Vector_50" d="M611.754 790.141L695.414 732.867L705.902 744.353L622.241 801.627L611.754 790.141Z" fill="#95C7EB"/>
</g>
<g id="Group_55">
<path id="Vector_51" d="M624.487 804.033L708.096 746.807L708.631 742.485L698.149 731.008L693.168 730.462L609.559 787.687L609.024 792.009L619.506 803.486L624.487 804.033ZM701.034 743.841L622.862 797.346L616.764 790.668L694.935 737.164L701.034 743.841Z" fill="#253244"/>
</g>
<g id="Group_56">
<path id="Vector_52" d="M580.247 788.053L584.78 784.954C593.689 778.861 595.096 767.479 587.914 759.621L582.521 763.308C587.31 768.547 586.371 776.135 580.432 780.197L575.9 783.297C569.961 787.359 561.209 786.399 556.421 781.16L532.1 754.551C527.311 749.312 528.25 741.724 534.189 737.662L538.721 734.562C544.66 730.5 553.412 731.461 558.2 736.7L559.272 737.872L564.664 734.184L563.593 733.012C556.41 725.153 543.282 723.713 534.374 729.806L529.841 732.906C520.933 738.999 519.525 750.38 526.708 758.239L551.029 784.847C558.211 792.706 571.339 794.146 580.247 788.053Z" fill="#253244"/>
</g>
<g id="Group_57">
<path id="Vector_53" d="M535.346 700.786L612.247 648.182L613.432 645.004C612.537 642.347 611.043 639.874 609.015 637.654C600.71 628.566 585.655 626.914 575.354 633.96C573.625 635.143 572.164 636.481 570.971 637.973C561.892 635.729 552.277 637.232 544.807 642.342C537.416 647.398 533.412 655.322 533.842 663.484C531.59 664.235 529.528 665.195 527.719 666.432C517.419 673.478 515.804 686.533 524.109 695.62C526.137 697.84 528.511 699.599 531.356 701.034L535.346 700.786ZM605.986 644.686L532.937 694.654C531.735 693.898 530.627 692.965 529.676 691.925C523.844 685.543 524.923 676.236 532.236 671.234C534.123 669.943 536.248 669.053 538.612 668.563L541.184 665.226C539.955 658.287 543.048 651.324 549.26 647.075C555.472 642.826 563.732 641.797 571.33 644.379L575.599 643.037C576.68 641.283 578.078 639.876 579.807 638.693C587.041 633.745 597.772 634.86 603.668 641.311C604.54 642.406 605.413 643.5 605.986 644.686Z" fill="#253244"/>
</g>
</g>
</g>
</g>
</g>
</g>
</g>
</g>
<defs>
<clipPath id="clip0">
<rect width="1414.18" height="912.825" transform="matrix(-0.999999 -0.0012918 -0.0012918 0.999999 1416.18 2.00153)" fill="white"/>
</clipPath>
<clipPath id="clip1">
<rect width="1410.4" height="908.686" transform="matrix(-0.999999 -0.0012918 -0.0012918 0.999999 1414.37 3.82449)" fill="white"/>
</clipPath>
</defs>
</svg>
