<svg width="691" height="521" viewBox="0 0 691 521" fill="none" xmlns="http://www.w3.org/2000/svg">
<g clip-path="url(#clip0)">
<path opacity="0.1" d="M678.565 157.074C671.987 140.583 663.097 125.285 652.207 111.717L286.527 107.829L587.605 62.1632C568.157 53.7953 547.451 49.359 526.518 49.0755C497.717 24.2033 462.25 10.0386 425.394 8.68944C388.538 7.34023 352.264 18.8786 321.969 41.5875C297.757 28.1497 270.917 21.1689 243.695 21.2288C162.447 21.2288 94.7435 82.002 79.5541 162.594L678.565 157.074Z" fill="#609ED6" fill-opacity="0.74"/>
<path opacity="0.1" d="M687.636 220.578C687.654 198.724 683.786 177.07 676.242 156.791L42.4719 228.632C35.9542 241.393 30.9668 254.998 27.6297 269.119L223.886 300.703L23.1515 323.733C29.1895 414.965 101.615 487.01 190.095 487.01C234.628 487.01 275.09 468.75 305.079 438.975C335.153 469.309 376.006 487.964 421.019 487.964C487.809 487.964 545.447 446.898 572.292 387.52C626.147 369.096 667.95 322.713 682.298 264.73L434.095 223.19H687.599C687.599 222.322 687.636 221.453 687.636 220.578Z" fill="#609ED6" fill-opacity="0.74"/>
<path d="M296.465 511.06C436.472 511.06 549.969 499.423 549.969 485.069C549.969 470.714 436.472 459.077 296.465 459.077C156.458 459.077 42.9606 470.714 42.9606 485.069C42.9606 499.423 156.458 511.06 296.465 511.06Z" fill="#609ED6"/>
<path d="M472.779 307.368C450.053 318.363 436.362 277.857 436.362 277.857C436.362 277.857 429.252 270.757 408.439 272.533C387.626 274.31 353.957 268.388 353.957 268.388C353.957 268.388 341.363 281.114 325.211 281.982C325.211 281.982 313.44 286.417 311.807 289.971C310.472 292.853 308.047 298.873 307.182 301.012C307.132 301.171 307.073 301.327 307.005 301.479C306.92 301.683 306.884 301.795 306.884 301.795L306.207 302.137L292.645 309.171L274.031 314.797L262.254 316.271L242.269 301.314C242.269 301.314 244.578 298.985 247.972 296.05C253.157 291.609 260.84 285.805 266.64 284.91C266.64 284.91 274.512 279.535 279.783 273.974C281.739 271.902 302.223 261.815 319.831 254.53C334.508 248.46 349.848 244.459 365.472 242.627L424.871 256.175C431.398 257.661 437.621 260.41 443.241 264.289C459.357 275.494 489.9 299.09 472.779 307.368Z" fill="#FFC1C7"/>
<g opacity="0.1">
<path opacity="0.1" d="M245.011 303.111C245.011 303.111 247.32 300.775 250.714 297.847C255.899 293.405 263.582 287.602 269.382 286.707C269.382 286.707 277.254 281.331 282.525 275.771C284.48 273.692 304.964 263.611 322.573 256.327C337.251 250.272 352.591 246.288 368.214 244.476L427.613 258.018C434.138 259.505 440.36 262.256 445.977 266.138C446.923 266.791 447.91 267.482 448.938 268.211C447.019 266.816 445.191 265.519 443.515 264.361C437.897 260.482 431.676 257.734 425.152 256.248L365.753 242.7C350.128 244.531 334.788 248.532 320.111 254.603C302.497 261.887 282.013 271.974 280.063 274.047C274.787 279.607 266.921 284.983 266.921 284.983C261.12 285.878 253.431 291.681 248.252 296.123C244.859 299.038 242.549 301.387 242.549 301.387L262.534 316.343H262.613L245.011 303.111Z" fill="black"/>
</g>
<path d="M397.039 374.675C396.964 375.016 396.872 375.352 396.765 375.682C396.716 375.853 396.649 376.024 396.594 376.189C396.439 376.6 396.265 377.002 396.07 377.393C395.991 377.57 395.9 377.748 395.821 377.919C395.801 377.958 395.779 377.996 395.754 378.031C395.668 378.202 395.583 378.36 395.492 378.518C394.882 379.637 394.176 380.703 393.499 381.808C393.274 382.163 393.048 382.525 392.835 382.894C392.797 382.969 392.754 383.042 392.707 383.111C392.591 383.315 392.47 383.532 392.36 383.769C392.25 384.006 392.165 384.124 392.08 384.302C391.994 384.48 391.982 384.486 391.939 384.578L391.677 385.124C391.372 385.81 391.129 386.526 390.952 387.263C390.014 391.441 391.671 395.725 393.018 399.765C395.735 407.964 397.234 417.136 394.663 425.322C394.602 425.513 394.541 425.71 394.474 425.907C394.407 426.105 394.291 426.427 394.194 426.684C394.048 427.079 393.883 427.467 393.7 427.855C392.311 430.777 389.929 433.402 386.998 433.119C382.971 432.737 381.015 427.408 377.347 425.592C374.161 424.012 370.133 425.302 367.13 423.354C367.38 422.467 367.721 421.613 368.147 420.808C368.689 419.729 369.366 418.696 369.975 417.669C370.997 416.153 371.817 414.49 372.412 412.728C372.529 412.335 372.624 411.935 372.698 411.53C372.702 411.499 372.702 411.468 372.698 411.438C372.729 411.234 372.765 411.043 372.79 410.839C372.814 410.635 372.839 410.451 372.857 410.24C372.86 410.205 372.86 410.17 372.857 410.135C372.857 409.905 372.857 409.674 372.899 409.438C372.906 407.214 372.701 404.996 372.29 402.818C371.531 397.87 370.767 392.922 369.999 387.974C369.439 384.354 368.89 380.564 369.926 377.07C370.005 376.82 370.091 376.57 370.176 376.327C370.261 376.083 370.365 375.833 370.468 375.596C371.067 374.25 371.772 372.962 372.576 371.747C374.51 368.676 376.584 365.704 378.797 362.831C380.296 360.857 381.905 358.883 382.453 356.422C382.512 356.184 382.557 355.943 382.587 355.698C382.94 353.323 382.319 350.954 381.588 348.579C381.494 348.303 381.409 348.026 381.332 347.75C381.076 346.934 380.82 346.111 380.601 345.276C380.528 345.006 380.461 344.73 380.394 344.453C380.264 343.9 380.16 343.34 380.083 342.775C380.002 342.218 379.957 341.655 379.949 341.091C379.949 340.828 379.949 340.558 379.949 340.295C379.949 340.031 379.949 339.9 379.998 339.696C380.046 339.492 380.052 339.275 380.083 339.038C380.113 338.801 380.132 338.722 380.162 338.564C380.193 338.406 380.253 338.084 380.314 337.853C380.349 337.664 380.396 337.477 380.455 337.294C380.485 337.143 380.528 336.991 380.564 336.847L380.723 336.32L380.972 335.557C381.052 335.307 381.143 335.05 381.234 334.8C381.691 333.484 382.215 332.168 382.672 330.905C382.929 330.174 383.151 329.43 383.336 328.674C383.336 328.536 383.403 328.385 383.434 328.24C383.471 328.095 383.502 327.948 383.525 327.799C383.568 327.617 383.6 327.433 383.623 327.246C383.665 327.003 383.708 326.746 383.732 326.496C383.757 326.246 383.781 325.99 383.799 325.733C383.818 325.476 383.799 325.226 383.799 324.976C383.81 324.085 383.693 323.197 383.452 322.344C383.362 321.996 383.243 321.657 383.099 321.331C382.993 321.106 382.877 320.886 382.752 320.673C381.972 319.304 380.759 318.258 380.052 316.83C379.635 315.954 379.426 314.979 379.443 313.994C379.441 313.726 379.457 313.457 379.492 313.191C379.529 312.919 379.586 312.651 379.662 312.389C379.688 312.283 379.72 312.18 379.76 312.079C379.805 311.97 379.847 311.865 379.888 311.764C379.948 311.632 380.015 311.505 380.089 311.382C380.15 311.296 380.205 311.204 380.266 311.125C380.911 310.244 381.947 309.809 383.367 310.257L383.714 310.382C384.526 310.663 385.31 311.031 386.054 311.481C388.314 312.872 390.239 314.82 391.671 317.166C394.169 321.232 395.236 326.154 395.546 331.023C395.735 333.098 395.639 335.191 395.26 337.235C395.26 337.32 395.217 337.419 395.205 337.505C395.156 337.702 395.114 337.899 395.053 338.09C394.683 339.285 394.256 340.458 393.773 341.604C393.382 342.555 393.084 343.547 392.884 344.565C392.311 347.947 393.56 351.323 394.572 354.58C395.53 357.672 396.291 360.831 396.85 364.035C397.557 367.569 397.898 371.273 397.039 374.675Z" fill="#965D7B"/>
<g opacity="0.1">
<path opacity="0.1" d="M393.859 341.617C394.344 340.467 394.773 339.29 395.144 338.091C395.224 337.808 395.297 337.525 395.358 337.235C394.736 338.644 394.234 340.11 393.859 341.617Z" fill="black"/>
<path opacity="0.1" d="M382.879 320.673C384.232 323.042 384.098 325.937 383.428 328.72C383.476 328.576 383.531 328.438 383.58 328.293C384.744 325.003 385.408 321.055 383.702 318.015C382.916 316.646 381.697 315.593 380.997 314.172C380.55 313.232 380.34 312.181 380.387 311.125C379.358 312.507 379.285 314.981 380.205 316.837C380.875 318.258 382.093 319.304 382.879 320.673Z" fill="black"/>
<path opacity="0.1" d="M391.805 384.631C391.775 384.776 391.751 384.92 391.726 385.072C393.067 381.999 395.431 379.393 396.6 376.208C396.847 375.541 397.04 374.852 397.179 374.149C395.613 377.775 392.646 380.716 391.805 384.631Z" fill="black"/>
<path opacity="0.1" d="M395.016 424.052C393.761 427.395 391.147 430.796 387.815 430.481C383.787 430.106 381.838 424.776 378.164 422.953C375.044 421.407 371.12 422.604 368.141 420.834C367.718 421.641 367.376 422.495 367.123 423.381C370.127 425.355 374.155 424.039 377.341 425.611C380.997 427.434 382.965 432.77 386.992 433.145C390.325 433.455 392.939 430.053 394.194 426.71C394.53 425.808 394.817 424.885 395.053 423.947L395.016 424.052Z" fill="black"/>
<path opacity="0.1" d="M372.339 402.844C372.784 405.726 373.222 408.72 372.698 411.556C372.903 411.082 373.08 410.594 373.228 410.096C374.167 406.917 373.667 403.476 373.161 400.186C372.402 395.238 371.638 390.287 370.87 385.335C370.377 382.117 369.89 378.755 370.517 375.616C370.309 376.097 370.128 376.592 369.975 377.097C368.939 380.591 369.494 384.374 370.048 387.993C370.816 392.95 371.579 397.901 372.339 402.844Z" fill="black"/>
<path opacity="0.1" d="M383.342 353.79C384.518 348.697 380.905 343.703 380.838 338.459C380.848 337.239 381.01 336.026 381.32 334.853C380.523 336.836 380.083 338.964 380.022 341.124C380.065 346.125 383.361 350.895 382.648 355.751C382.946 355.128 383.179 354.47 383.342 353.79Z" fill="black"/>
</g>
<path d="M514.942 427.467C508.099 452.004 492.764 461.466 492.764 461.466C492.764 461.466 476.063 478.028 472.499 486.621C468.935 495.215 458.266 492.833 453.891 486.621C449.517 480.41 435.82 482.785 435.82 482.785L415.007 484.555C415.007 484.555 377.292 489.957 364.631 480.495C351.971 471.033 343.55 470.961 343.55 470.961C343.55 470.961 333.692 475.685 322.475 476.284C317.147 476.668 311.852 477.477 306.634 478.706C303.728 479.364 301.187 480.022 299.365 480.489C297.543 480.956 296.459 481.305 296.459 481.305L268.578 478.271L242.245 475.396L228.012 473.317L224.277 464.539L220.682 456.103L219.464 453.221L221.17 423.078H266.074C266.074 423.078 312.903 425.71 318.917 425.71H320.282C320.282 425.71 327.77 422.473 339.992 430.435C341.55 431.378 343.181 432.175 344.866 432.817C364.29 440.653 418.864 450.839 418.864 450.839L454.202 448.47C454.202 448.47 474.071 440.653 485.276 435.501C489.01 433.777 491.789 432.349 492.532 431.619C495.499 428.651 521.784 402.923 514.942 427.467Z" fill="#FFC1C7"/>
<path opacity="0.1" d="M236.603 452.708L238.766 461.025L231.369 465.355L224.283 464.513L220.688 456.077L219.47 453.195L221.176 423.052H266.05C256.685 423.96 236.603 452.708 236.603 452.708Z" fill="black"/>
<path d="M235.78 452.708L237.943 461.025L230.553 465.355L211.866 463.137L201.801 454.379C185.35 425.552 165.457 425.427 165.457 425.427C165.457 425.427 167.925 421.538 167.821 417.992C167.717 414.445 171.44 405.351 171.44 405.351L171.793 405.167C173.049 404.509 177.307 402.232 177.576 402.134C177.576 402.134 262.065 416.88 263.71 417.439C264.134 417.629 264.482 417.977 264.691 418.419C265.647 420.038 266.074 423.025 266.074 423.025C257.154 422.137 235.78 452.708 235.78 452.708Z" fill="#F8487D"/>
<path d="M335.617 329.595C333.135 329.539 330.653 329.709 328.196 330.102C324.108 330.819 320.19 332.497 321.927 336.399C325.211 343.789 304.404 356.797 304.404 356.797L275.378 376.906L257.306 347.335L266.622 323.384L292.626 309.191L306.871 301.808C306.871 301.808 312.513 304.025 317.473 303.9C319.764 303.848 321.915 303.295 323.298 301.808C327.672 297.077 335.617 329.595 335.617 329.595Z" fill="#FFC1C7"/>
<path opacity="0.1" d="M335.617 329.595C333.135 329.539 330.652 329.709 328.196 330.102C324.818 327.54 322.062 324.136 320.161 320.178C318.261 316.22 317.272 311.826 317.278 307.368C317.275 306.209 317.34 305.051 317.473 303.9C319.764 303.848 321.915 303.295 323.298 301.808C327.672 297.077 335.617 329.595 335.617 329.595Z" fill="black"/>
<path d="M370.383 307.368C370.384 311.018 369.719 314.633 368.426 318.005C367.134 321.378 365.239 324.442 362.85 327.024C360.46 329.605 357.624 331.653 354.502 333.051C351.379 334.448 348.033 335.168 344.653 335.169C343.461 335.169 342.27 335.079 341.089 334.899C334.629 333.932 328.75 330.353 324.64 324.884C320.53 319.415 318.495 312.465 318.948 305.439C319.401 298.413 322.307 291.834 327.078 287.033C331.85 282.232 338.131 279.566 344.653 279.574C345.638 279.577 346.623 279.636 347.602 279.752C353.874 280.538 359.66 283.785 363.86 288.877C368.061 293.968 370.382 300.549 370.383 307.368Z" fill="#FFC1C7"/>
<path opacity="0.1" d="M485.373 436.041C485.373 439.567 468.015 446.733 453.045 452.26C442.544 456.041 431.504 457.773 420.442 457.373C419.548 457.323 418.651 457.41 417.779 457.63C413.673 458.807 360.287 445.207 360.287 445.207C360.287 445.207 349.387 439.745 344.879 432.803C364.302 440.64 418.876 450.826 418.876 450.826L454.214 448.457C454.214 448.457 474.083 440.64 485.288 435.488C485.363 435.66 485.392 435.851 485.373 436.041Z" fill="black"/>
<path d="M324.388 339.124C324.388 339.124 328.221 350 333.15 352.659C338.079 355.317 347.931 365.963 347.115 379.86C347.115 379.86 345.47 383.71 350.673 391.704C355.876 399.699 368.47 417.13 368.47 417.13C368.47 417.13 394.2 426.888 402.413 432.803H402.444C408.902 433.805 415.248 435.514 421.386 437.903C424.896 439.219 429.191 440.489 433.078 440.489C441.566 440.489 485.373 428.072 485.373 434.277C485.373 437.811 468.015 444.976 453.038 450.504C442.538 454.275 431.501 456 420.442 455.597C419.548 455.55 418.652 455.636 417.779 455.853C413.673 457.031 360.281 443.43 360.281 443.43C360.281 443.43 349.028 437.817 344.647 430.691C340.266 423.565 329.049 414.458 329.049 414.458C329.049 414.458 316.73 391.987 315.645 386.664C315.645 386.664 309.351 382.821 292.919 388.73C276.487 394.639 289.342 375.419 289.342 375.419L307.688 352.389L324.388 339.124Z" fill="#FFC1C7"/>
<path opacity="0.1" d="M329.592 347.342L323.871 332.313C318.54 335.967 313.577 340.21 309.059 344.973C302.211 352.362 297.556 356.817 294.272 357.686C290.988 358.554 279.765 364.726 275.11 352.04C270.455 339.354 272.368 330.78 276.749 326.641C281.129 322.502 310.771 303.039 310.771 303.039L306.878 302.716C306.878 302.716 279.777 312.961 271.289 308.283C271.289 308.283 256.228 311 252.944 305.085C249.66 299.169 246.559 298.235 246.559 298.235L226.659 327.26L233.782 391.422H252.121L271.832 383.144L298.116 380.775C298.116 380.775 307.974 370.721 309.345 365.99C310.716 361.259 321.129 345.861 329.592 347.342Z" fill="black"/>
<path d="M329.592 346.467L323.871 331.438C318.54 335.092 313.577 339.335 309.059 344.098C302.211 351.494 297.556 355.942 294.272 356.811C290.988 357.679 279.765 363.851 275.11 351.165C270.455 338.479 272.368 329.905 276.749 325.766C281.129 321.627 310.771 303.039 310.771 303.039L306.878 301.834C306.878 301.834 279.777 312.073 271.289 307.395C271.289 307.395 256.228 310.112 252.944 304.197C249.66 298.281 246.559 297.347 246.559 297.347L226.659 326.371L233.782 390.533H252.121L271.832 382.256L298.116 379.887C298.116 379.887 307.974 369.839 309.345 365.108C310.716 360.377 321.129 344.973 329.592 346.467Z" fill="#565988"/>
<path opacity="0.1" d="M264.691 418.433C264.374 420.064 264.118 421.111 264.118 421.111C264.118 421.111 262.991 420.663 249.136 423.552C235.281 426.441 221.517 423.552 221.517 423.552C213.47 422.544 205.506 420.875 197.694 418.558C185.789 414.899 170.179 410.569 171.495 406.056C171.58 405.792 171.665 405.496 171.769 405.207C173.024 404.549 177.283 402.272 177.551 402.173C177.551 402.173 262.04 416.919 263.685 417.478C264.115 417.657 264.472 417.995 264.691 418.433Z" fill="black"/>
<path opacity="0.1" d="M323.87 332.313L328.623 343.914C328.623 343.914 321.311 339.722 311.965 356.909C302.619 374.096 301.388 376.538 301.388 376.538C301.388 376.538 294.82 381.381 296.465 387.553C296.465 387.553 277.004 394.791 264.173 390.007C264.173 390.007 261.297 399.377 261.608 405.7C261.799 409.077 261.816 412.462 261.657 415.84C261.657 415.84 265.312 412.846 251.445 415.735C237.578 418.623 223.826 417.781 223.826 417.781C216.26 416.448 208.77 414.654 201.392 412.405C189.481 408.747 171.001 409.688 172.336 405.167C173.67 400.647 178.087 392.086 178.087 392.086C178.087 392.086 181.268 390.112 181.134 388.204C181 386.296 186.989 380.775 186.989 380.775C186.989 380.775 190.681 377.452 190.169 374.675C189.658 371.899 193.764 367.358 193.764 367.358L201.569 350.843C201.569 350.843 208.137 335.426 212.658 334.761C217.179 334.096 225.489 319.903 225.489 319.903C225.489 319.903 240.271 307.046 240.374 304.381C240.478 301.716 247.765 296.952 247.765 296.952C247.765 296.952 248.941 307.835 258.732 308.283C268.523 308.73 281.458 308.283 281.458 308.283L306.859 301.835C306.859 301.835 295.734 312.698 293.163 313.475C290.591 314.251 282.866 320.239 278.93 321.371C274.994 322.502 266.994 328.306 267.305 336.597C267.615 344.888 270.284 349.099 270.284 349.099C270.284 349.099 278.29 365.549 286.296 363.575C286.296 363.575 295.24 364.095 298.823 358.364C302.405 352.632 323.87 332.313 323.87 332.313Z" fill="#9B1C2C"/>
<path opacity="0.1" d="M307.688 300.92L306.993 301.492L306.195 302.15L292.633 309.184L274.019 314.81L262.242 316.284L242.257 301.328C242.257 301.328 244.566 298.998 247.96 296.064C248.508 298.696 250.744 306.092 258.75 306.454C268.529 306.908 281.477 306.454 281.477 306.454L307.176 300.999L307.688 300.92Z" fill="black"/>
<path d="M323.87 331.425L328.623 343.927C328.623 343.927 320.489 338.854 311.142 356.041C301.796 373.228 300.571 375.662 300.571 375.662C300.571 375.662 294.82 381.394 296.465 387.566C296.465 387.566 278.698 397.284 265.867 392.514C265.867 392.514 265.562 398.284 265.867 404.601C266.171 410.918 264.124 419.347 264.124 419.347C264.124 419.347 262.991 418.906 249.13 421.788C235.268 424.67 221.517 421.788 221.517 421.788C213.47 420.785 205.506 419.117 197.694 416.801C185.789 413.142 170.179 408.813 171.495 404.299C172.811 399.785 177.247 391.211 177.247 391.211C177.247 391.211 180.427 389.237 180.329 387.329C180.232 385.42 186.179 379.9 186.179 379.9C186.179 379.9 189.877 376.61 189.359 373.807C188.841 371.004 192.954 366.483 192.954 366.483L200.759 349.967C200.759 349.967 207.327 334.55 211.848 333.886C216.369 333.221 224.679 319.028 224.679 319.028C224.679 319.028 239.485 306.131 239.582 303.466C239.68 300.801 246.979 296.037 246.979 296.037C246.979 296.037 248.149 306.921 257.946 307.368C267.743 307.816 280.678 307.368 280.678 307.368L306.878 301.808C306.878 301.808 294.936 311.783 292.37 312.56C289.805 313.336 282.068 319.324 278.132 320.456C274.196 321.588 266.19 327.444 266.494 335.761C266.799 344.078 269.474 348.263 269.474 348.263C269.474 348.263 277.48 364.674 285.492 362.68C285.492 362.68 294.43 363.193 298.012 357.469C301.595 351.744 323.87 331.425 323.87 331.425Z" fill="white"/>
<path opacity="0.1" d="M244.207 371.655C244.207 371.655 254.266 391.836 258.884 394.027C263.503 396.218 262.583 392.474 262.583 392.474C262.583 392.474 245.645 376.077 244.207 371.655Z" fill="black"/>
<path opacity="0.1" d="M224.801 386.96C224.801 386.96 234.659 403.924 241.946 403.924L224.801 386.96Z" fill="black"/>
<path opacity="0.1" d="M203.135 366.003C203.135 366.003 214.638 405.253 235.786 408.359C235.786 408.359 208.168 386.408 203.135 366.003Z" fill="black"/>
<path opacity="0.1" d="M205.188 399.929C205.188 399.929 224.186 416.228 235.786 413.794C235.786 413.794 215.973 410.135 205.188 399.929Z" fill="black"/>
<path opacity="0.1" d="M191.09 427.893C191.09 427.893 210.08 444.194 221.687 441.754C221.687 441.754 201.867 438.093 191.09 427.893Z" fill="black"/>
<path opacity="0.1" d="M196.055 437.146C196.055 437.146 215.046 453.445 226.647 451.01C226.647 451.01 206.833 447.352 196.055 437.146Z" fill="black"/>
<path opacity="0.1" d="M198.925 422.137C198.925 422.137 217.916 438.416 229.517 435.955C229.517 435.955 209.703 432.317 198.925 422.137Z" fill="black"/>
<path opacity="0.1" d="M286.4 325.641L274.494 342.163L276.133 345.486L286.4 325.641Z" fill="black"/>
<path opacity="0.1" d="M370.383 307.368C370.384 311.018 369.719 314.632 368.426 318.005C367.134 321.377 365.239 324.442 362.85 327.023C360.46 329.605 357.624 331.653 354.501 333.051C351.379 334.448 348.033 335.168 344.653 335.169C343.461 335.169 342.27 335.079 341.089 334.899C341.469 334.431 341.786 333.908 342.033 333.346C342.795 331.05 339.596 328.655 340.601 326.457C341.119 325.286 342.515 324.989 343.715 324.957C344.915 324.924 346.249 324.957 347.121 324.062C348.126 323.015 347.986 321.291 348.242 319.811C348.644 317.561 350.106 315.685 351.696 314.152C353.287 312.619 355.066 311.296 356.437 309.546C358.539 306.848 359.526 303.321 359.788 299.808C359.958 297.538 359.788 295.123 358.679 293.228C357.46 291.194 355.37 290.049 353.457 288.799C351.678 287.736 350.128 286.276 348.912 284.516C348.132 283.279 347.352 281.351 347.602 279.785C353.869 280.57 359.651 283.813 363.85 288.897C368.05 293.982 370.374 300.555 370.383 307.368Z" fill="black"/>
<path d="M384.494 308.73C384.393 309.192 384.231 309.635 384.013 310.046C383.952 310.165 383.879 310.29 383.812 310.415L383.44 311.027C382.854 311.818 382.466 312.758 382.313 313.757C382.24 314.975 382.855 316.087 383.257 317.245L383.324 317.449C383.379 317.613 383.426 317.78 383.464 317.949C383.713 319.093 383.63 320.292 383.227 321.384C382.786 322.602 382.135 323.718 381.307 324.674C379.754 326.483 377.798 327.852 376.232 329.642C375.062 330.958 374.118 332.517 372.96 333.846C370.219 336.978 366.38 338.775 362.475 339.63C359.417 340.225 356.313 340.496 353.207 340.44H350.557C350.142 340.466 349.726 340.397 349.338 340.236C348.891 339.911 348.504 339.498 348.199 339.018C346.603 337.044 343.934 336.669 341.497 336.445C341.471 336.195 341.494 335.941 341.563 335.7C341.632 335.458 341.747 335.235 341.899 335.044C342.293 334.539 342.629 333.985 342.898 333.392C343.666 331.089 340.461 328.701 341.473 326.49C341.566 326.282 341.694 326.095 341.85 325.937C341.952 325.826 342.065 325.727 342.185 325.641C342.918 325.197 343.746 324.97 344.586 324.983C345.037 324.983 345.506 324.983 345.963 324.924C346.688 324.893 347.383 324.601 347.937 324.095C348.942 323.062 348.802 321.331 349.058 319.857C349.46 317.594 350.923 315.725 352.513 314.198C354.103 312.672 355.882 311.343 357.253 309.592C359.355 306.901 360.342 303.361 360.604 299.86C360.775 297.59 360.604 295.169 359.495 293.28C358.435 291.504 356.692 290.405 354.993 289.332L354.274 288.872C352.953 288.05 351.742 287.038 350.673 285.865C350.34 285.428 350.037 284.966 349.765 284.483C349.003 283.272 348.248 281.41 348.437 279.877C348.444 279.775 348.46 279.673 348.485 279.574C348.845 277.883 350.392 277.863 351.861 277.653C352.257 277.6 352.647 277.554 353.043 277.528C353.627 277.492 354.213 277.492 354.798 277.528C357.301 277.629 359.749 278.354 361.951 279.647C362.767 280.127 363.547 280.686 364.388 281.101C366.386 282.068 368.653 282.193 370.712 282.904C374.88 284.312 378.115 287.997 380.168 292.155C382.221 296.314 383.245 300.953 384.25 305.532C384.549 306.566 384.632 307.658 384.494 308.73Z" fill="#965D7B"/>
<path opacity="0.1" d="M306.64 478.679C306.513 479.278 306.308 479.854 306.031 480.39C306.031 480.39 303.313 480.495 299.328 480.462C293.888 480.416 286.113 480.114 279.831 478.916C276.086 478.333 272.299 478.113 268.517 478.258L242.184 475.383L227.951 473.303L220.64 456.09C224.868 456.34 228.512 456.162 228.512 456.162C236.597 447.885 244.121 449.214 248.228 452.807C252.335 456.399 260.005 459.262 260.548 459.262C260.913 459.262 273.02 459.538 280.806 459.709C286.838 459.806 292.754 461.515 298.025 464.683C307.115 470.171 307.249 475.909 306.64 478.679Z" fill="black"/>
<path d="M171.434 423.058L165.457 425.427C165.457 425.427 148.897 413.123 124.665 418.887C100.434 424.651 102.079 440.028 102.079 440.028C102.079 440.028 103.036 458.873 110 465.342C116.964 471.81 121.363 472.106 125.33 476.988C129.296 481.871 149.835 484.082 149.835 484.082C149.835 484.082 190.492 486.299 212.396 484.082C234.3 481.864 244.188 481.864 244.188 481.864C244.188 481.864 268.243 478.614 279.058 480.68C289.873 482.746 305.208 482.16 305.208 482.16C305.208 482.16 309.729 474.08 297.233 466.441C291.963 463.268 286.047 461.559 280.014 461.466C272.234 461.288 260.127 461.019 259.756 461.019C259.207 461.019 251.542 458.156 247.436 454.564C243.329 450.971 235.805 449.635 227.726 457.913C227.726 457.913 209.794 458.801 207.327 453.925C204.859 449.049 192.131 433.744 192.131 433.744L171.434 423.058Z" fill="#FFC1C7"/>
<path opacity="0.1" d="M201.185 452.103C201.185 452.103 201.051 454.781 206.596 454.34C211.726 453.925 191.4 434.159 191.4 434.159L170.685 423.466L164.708 425.842C164.708 425.842 184.759 423.275 201.185 452.103Z" fill="black"/>
<path d="M202.008 451.214C202.008 451.214 201.874 453.892 207.418 453.451C212.548 453.043 192.223 433.27 192.223 433.27L171.507 422.578L165.524 424.953C165.524 424.953 185.582 422.387 202.008 451.214Z" fill="#F8487D"/>
<path opacity="0.1" d="M143.145 432.935C143.145 432.935 149.031 429.685 157.658 433.751C160.739 435.184 163.911 436.373 167.151 437.311C172.346 438.825 177.332 441.075 181.981 444.003C187.988 447.773 196.14 452.3 200.673 452.3" stroke="black" stroke-miterlimit="10"/>
<path opacity="0.1" d="M352.202 340.387C351.787 340.418 351.371 340.348 350.984 340.183C350.533 339.862 350.146 339.448 349.844 338.966C348.248 336.992 345.549 336.617 343.142 336.399C342.947 335.254 344.172 334.425 344.537 333.346C345.311 331.043 342.1 328.655 343.112 326.45C343.636 325.286 345.031 324.99 346.231 324.957C347.431 324.924 348.766 324.957 349.631 324.055C350.636 323.016 350.496 321.285 350.758 319.811C351.154 317.554 352.616 315.679 354.207 314.152C355.797 312.626 357.582 311.297 358.953 309.546C361.049 306.855 362.036 303.322 362.304 299.815C362.475 297.538 362.304 295.123 361.189 293.202C359.97 291.175 357.881 290.03 355.967 288.773C354.188 287.71 352.638 286.25 351.422 284.49C350.618 283.213 349.802 281.2 350.143 279.588C350.484 277.975 352.056 277.877 353.524 277.666C353.957 277.6 354.383 277.561 354.822 277.535C353.839 277.486 352.855 277.53 351.879 277.666C350.411 277.877 348.833 277.896 348.498 279.588C348.163 281.279 348.973 283.213 349.783 284.49C350.999 286.25 352.549 287.71 354.328 288.773C356.187 290.017 358.295 291.195 359.513 293.169C360.653 295.09 360.799 297.505 360.628 299.782C360.36 303.289 359.41 306.822 357.277 309.513C355.907 311.277 354.127 312.6 352.537 314.119C350.947 315.639 349.491 317.521 349.083 319.778C348.821 321.252 348.961 322.983 347.961 324.022C347.096 324.917 345.756 324.891 344.556 324.924C343.355 324.957 341.96 325.253 341.436 326.418C340.449 328.622 343.636 331.024 342.868 333.313C342.496 334.406 341.278 335.222 341.467 336.367C343.904 336.584 346.597 336.939 348.169 338.933C348.467 339.419 348.855 339.833 349.308 340.15C349.695 340.317 350.111 340.386 350.527 340.354C351.41 340.354 352.3 340.354 353.189 340.354L352.202 340.387Z" fill="black"/>
<path d="M383.574 322.377C383.818 321.535 384.092 320.594 384.36 319.594C385.148 316.948 385.744 314.24 386.145 311.494C385.401 311.045 384.617 310.676 383.806 310.395C383.873 310.27 383.946 310.145 384.007 310.027L383.458 310.27C383.458 310.27 383.458 310.546 383.458 311.007C383.416 312.257 383.33 314.902 383.276 317.225C383.276 317.265 383.276 317.298 383.276 317.33C383.233 319.166 383.208 320.792 383.276 321.371L383.574 322.377Z" fill="#565988"/>
<path opacity="0.1" d="M559.078 468.526C573.722 468.526 585.594 466.765 585.594 464.592C585.594 462.418 573.722 460.657 559.078 460.657C544.434 460.657 532.562 462.418 532.562 464.592C532.562 466.765 544.434 468.526 559.078 468.526Z" fill="#F3597B"/>
<path d="M569.832 459.689C570.947 458.571 571.989 457.255 572.312 455.649C572.635 454.044 571.995 452.116 570.575 451.53C568.985 450.872 567.285 452.069 566 453.267C564.714 454.465 563.233 455.846 561.546 455.59C562.41 454.739 563.056 453.661 563.42 452.46C563.784 451.26 563.854 449.978 563.623 448.74C563.544 448.223 563.333 447.74 563.014 447.345C562.131 446.325 560.528 446.766 559.474 447.569C556.111 450.122 555.173 455.057 555.154 459.498C554.813 457.893 555.099 456.208 555.093 454.583C555.087 452.958 554.667 451.115 553.381 450.234C552.581 449.771 551.681 449.544 550.774 449.576C549.263 449.516 547.581 449.674 546.545 450.892C545.266 452.372 545.595 454.84 546.716 456.498C547.837 458.156 549.525 459.13 551.09 460.281C552.343 461.09 553.411 462.192 554.216 463.506C554.309 463.689 554.386 463.88 554.448 464.078H563.928C566.073 462.914 568.059 461.437 569.832 459.689Z" fill="#609ED6"/>
<path opacity="0.1" d="M643.86 485.417C658.504 485.417 670.376 483.655 670.376 481.482C670.376 479.309 658.504 477.547 643.86 477.547C629.215 477.547 617.344 479.309 617.344 481.482C617.344 483.655 629.215 485.417 643.86 485.417Z" fill="#F3597B"/>
<path d="M654.614 476.58C655.729 475.462 656.77 474.146 657.093 472.54C657.416 470.935 656.777 469.007 655.357 468.421C653.767 467.763 652.067 468.954 650.781 470.158C649.496 471.362 648.015 472.738 646.327 472.481C647.195 471.631 647.845 470.553 648.212 469.351C648.579 468.15 648.652 466.866 648.423 465.625C648.343 465.11 648.132 464.629 647.814 464.236C646.931 463.216 645.328 463.651 644.274 464.46C640.911 467.013 639.973 471.948 639.954 476.383C639.613 474.784 639.9 473.093 639.893 471.474C639.887 469.856 639.467 468.007 638.181 467.125C637.381 466.661 636.481 466.434 635.574 466.467C634.063 466.408 632.381 466.572 631.345 467.783C630.066 469.263 630.395 471.731 631.516 473.389C632.637 475.047 634.325 476.021 635.89 477.173C637.144 477.979 638.212 479.082 639.016 480.397C639.111 480.578 639.189 480.77 639.248 480.969H648.728C650.865 479.801 652.845 478.324 654.614 476.58Z" fill="#609ED6"/>
<path opacity="0.1" d="M590.822 520.93C605.466 520.93 617.338 519.168 617.338 516.995C617.338 514.822 605.466 513.06 590.822 513.06C576.177 513.06 564.306 514.822 564.306 516.995C564.306 519.168 576.177 520.93 590.822 520.93Z" fill="#F3597B"/>
<path d="M601.576 512.093C602.691 510.974 603.732 509.658 604.055 508.053C604.378 506.447 603.745 504.526 602.325 503.94C600.729 503.282 599.029 504.473 597.743 505.671C596.458 506.868 594.977 508.25 593.289 507.993C594.157 507.144 594.806 506.067 595.173 504.867C595.541 503.666 595.614 502.384 595.385 501.144C595.306 500.627 595.095 500.144 594.776 499.749C593.893 498.729 592.296 499.17 591.236 499.972C587.873 502.525 586.935 507.46 586.916 511.902C586.575 510.296 586.861 508.612 586.855 506.987C586.849 505.361 586.429 503.519 585.143 502.637C584.345 502.174 583.447 501.947 582.542 501.979C581.024 501.92 579.343 502.085 578.313 503.295C577.028 504.782 577.363 507.243 578.478 508.901C579.593 510.56 581.293 511.533 582.852 512.685C584.106 513.492 585.174 514.594 585.978 515.909C586.076 516.089 586.154 516.282 586.209 516.482H595.69C597.828 515.316 599.808 513.839 601.576 512.093Z" fill="#609ED6"/>
<path opacity="0.1" d="M53.0381 462.104C67.6825 462.104 79.5541 460.342 79.5541 458.169C79.5541 455.996 67.6825 454.234 53.0381 454.234C38.3937 454.234 26.5221 455.996 26.5221 458.169C26.5221 460.342 38.3937 462.104 53.0381 462.104Z" fill="#F3597B"/>
<path d="M63.7858 453.267C64.9008 452.149 65.9488 450.833 66.2656 449.227C66.5824 447.622 65.9549 445.694 64.5352 445.108C62.945 444.45 61.2451 445.641 59.9534 446.845C58.6617 448.049 57.1873 449.425 55.4996 449.168C56.3686 448.319 57.0186 447.241 57.386 446.039C57.7534 444.837 57.8256 443.553 57.5955 442.312C57.5128 441.798 57.3022 441.318 56.9862 440.923C56.1028 439.903 54.5003 440.338 53.4402 441.147C50.0769 443.7 49.1386 448.635 49.1204 453.07C48.7853 451.471 49.0716 449.78 49.0594 448.161C49.0473 446.543 48.6329 444.694 47.3535 443.812C46.5529 443.349 45.6534 443.122 44.7457 443.154C43.2347 443.095 41.547 443.259 40.5173 444.47C39.2317 445.95 39.5668 448.418 40.6818 450.076C41.7968 451.734 43.4967 452.708 45.0625 453.86C46.3158 454.667 47.3843 455.769 48.1882 457.084C48.281 457.267 48.3585 457.458 48.4197 457.656H57.9184C60.0489 456.486 62.0227 455.01 63.7858 453.267Z" fill="#609ED6"/>
<path opacity="0.1" d="M26.516 517.909C41.1604 517.909 53.032 516.148 53.032 513.975C53.032 511.801 41.1604 510.04 26.516 510.04C11.8716 510.04 0 511.801 0 513.975C0 516.148 11.8716 517.909 26.516 517.909Z" fill="#F3597B"/>
<path d="M37.2698 509.073C38.3848 507.954 39.4267 506.638 39.7496 505.032C40.0725 503.427 39.4389 501.499 38.0192 500.913C36.4229 500.255 34.723 501.446 33.4374 502.65C32.1518 503.855 30.6713 505.23 28.9836 504.973C29.8571 504.127 30.5122 503.05 30.8849 501.848C31.2577 500.646 31.3352 499.361 31.11 498.117C31.0293 497.602 30.8185 497.122 30.5007 496.728C29.6172 495.708 28.0209 496.143 26.9608 496.952C23.5975 499.505 22.6592 504.44 22.6409 508.882C22.2997 507.276 22.5861 505.592 22.58 503.966C22.5739 502.341 22.1535 500.499 20.8679 499.617C20.0706 499.151 19.1723 498.924 18.2663 498.959C16.7492 498.893 15.0675 499.058 14.0379 500.275C12.7523 501.756 13.0874 504.223 14.2024 505.881C15.3174 507.539 17.0173 508.513 18.577 509.665C19.8316 510.47 20.9004 511.572 21.7026 512.889C21.8006 513.069 21.8783 513.261 21.9342 513.461H31.4085C33.5368 512.291 35.5085 510.815 37.2698 509.073Z" fill="#609ED6"/>
</g>
<defs>
<clipPath id="clip0">
<rect y="0.923096" width="691" height="520" fill="white"/>
</clipPath>
</defs>
</svg>
