<?xml version="1.0" standalone="no"?>
<!DOCTYPE svg PUBLIC "-//W3C//DTD SVG 20010904//EN"
 "http://www.w3.org/TR/2001/REC-SVG-20010904/DTD/svg10.dtd">
<svg version="1.0" xmlns="http://www.w3.org/2000/svg"
 width="626.000000pt" height="626.000000pt" viewBox="0 0 626.000000 626.000000"
 preserveAspectRatio="xMidYMid meet">
<metadata>
Created by potrace 1.11, written by Peter Selinger 2001-2013
</metadata>
<g transform="translate(0.000000,626.000000) scale(0.100000,-0.100000)"
fill="#000000" stroke="none">
<path d="M0 3130 l0 -3130 3130 0 3130 0 0 3130 0 3130 -3130 0 -3130 0 0
-3130z m2015 1547 c53 -22 116 -66 152 -107 40 -45 75 -148 74 -217 -1 -56 1
-63 19 -63 30 0 51 -41 54 -111 2 -35 2 -69 -1 -75 -2 -7 -27 1 -68 23 -39 21
-75 33 -92 31 -21 -2 -28 2 -31 17 -12 77 -23 84 -40 26 -20 -65 -15 -116 13
-150 23 -26 25 -36 19 -80 -6 -49 -6 -51 18 -51 23 0 25 3 21 43 l-4 42 46 0
47 0 -5 -39 -5 -39 59 6 c55 5 83 -3 59 -18 -22 -13 -8 -24 27 -22 36 2 38 0
65 -53 15 -30 38 -80 52 -110 13 -30 40 -89 59 -130 19 -41 43 -95 54 -120 57
-131 87 -188 96 -183 6 4 7 1 3 -6 -5 -7 -3 -25 4 -41 11 -27 17 -30 100 -46
11 -2 33 34 77 129 58 126 62 132 89 131 16 -1 72 -5 126 -9 l96 -7 7 -91 c9
-126 10 -196 1 -233 -6 -26 -2 -35 29 -67 58 -60 108 -81 200 -84 l80 -2 -1
-88 c-1 -48 -11 -126 -22 -173 -10 -47 -17 -101 -14 -120 12 -85 5 -240 -17
-389 -6 -36 -8 -68 -5 -73 3 -4 -10 -8 -29 -8 -38 0 -46 14 -52 90 -10 120
-19 212 -43 429 l-27 244 -60 26 c-33 14 -71 34 -85 43 -13 10 -27 14 -31 10
-9 -9 -60 -103 -94 -172 -14 -30 -31 -63 -36 -72 -5 -10 -9 -160 -9 -333 l0
-315 -180 0 -181 0 22 29 c17 23 20 37 15 68 -8 47 -8 68 0 114 5 31 2 39 -17
53 -13 9 -38 16 -56 16 l-33 0 0 189 c0 192 -4 226 -23 214 -5 -3 -7 -1 -4 4
7 11 -34 93 -61 126 -8 9 -12 17 -8 17 3 0 -17 44 -45 98 -88 165 -133 251
-214 407 -87 168 -171 329 -221 422 -18 34 -30 64 -26 66 4 2 26 3 50 2 38 -2
56 8 33 17 -5 2 -11 41 -15 88 -15 202 -29 317 -42 337 -35 56 -141 78 -237
49 -26 -8 -47 -13 -48 -13 -6 16 -75 273 -74 275 2 3 179 46 225 55 40 8 111
-3 165 -26z m2757 -12 c6 -102 0 -131 -27 -143 -14 -7 -37 -12 -50 -12 -20 0
-25 -5 -25 -25 0 -29 -6 -28 149 -15 64 5 175 15 246 21 152 13 175 20 215 65
16 19 34 34 40 34 15 0 12 -32 -5 -57 -8 -12 -13 -28 -10 -35 9 -22 -107 -55
-295 -84 -91 -14 -178 -28 -195 -33 l-30 -7 -1 -171 -1 -171 121 -5 c67 -3
148 -12 181 -20 33 -9 120 -28 194 -44 128 -27 134 -29 144 -56 8 -26 13 -28
41 -23 42 9 146 10 146 2 0 -3 0 -406 0 -896 l0 -890 -29 0 c-16 0 -43 3 -60
6 l-31 7 0 112 c0 106 -1 113 -25 135 -20 19 -31 22 -66 16 l-42 -7 6 30 c4
21 2 33 -8 38 -8 5 -51 41 -95 82 l-82 74 6 66 c3 36 8 138 12 226 3 88 9 225
14 305 4 80 7 146 6 147 -1 1 -46 -129 -100 -290 -55 -161 -100 -293 -102
-295 -1 -2 -13 4 -27 12 -21 15 -26 15 -36 2 -10 -12 -8 -22 13 -49 l27 -35
-55 -162 -56 -162 26 -21 26 -20 -6 -111 c-4 -61 -9 -119 -12 -128 -5 -17 -26
-18 -249 -18 -229 0 -323 8 -544 44 -17 3 -25 -2 -28 -15 -4 -15 -15 -19 -49
-19 -38 0 -44 3 -44 21 0 11 7 27 15 35 21 21 19 47 -5 62 -31 19 -40 7 -40
-59 l0 -59 -155 0 -155 0 0 695 c0 382 3 695 8 696 4 0 66 6 137 12 l130 12 3
32 3 31 -141 7 -140 8 2 166 3 166 40 -2 c22 -1 54 -4 71 -8 28 -6 32 -4 42
23 8 23 18 31 44 35 18 2 121 23 228 46 143 30 219 41 283 41 l87 0 -2 172 -3
173 -50 7 c-27 4 -118 14 -202 22 -163 16 -270 42 -276 66 -2 9 -40 27 -94 44
-63 20 -98 37 -118 57 -64 69 -191 81 -283 28 -45 -26 -111 -109 -114 -144 -1
-14 -5 -25 -9 -25 -3 0 -25 -39 -48 -87 -45 -93 -80 -134 -129 -151 -62 -21
-159 24 -218 103 -21 28 -44 56 -51 63 -7 7 -16 19 -20 26 -5 7 -29 25 -54 39
-82 48 -195 28 -248 -44 -18 -24 -25 -28 -36 -19 -12 10 -10 18 12 47 40 52
90 73 171 73 38 0 85 -6 103 -14 38 -16 79 -48 79 -62 0 -5 9 -15 20 -21 11
-7 27 -27 35 -44 19 -36 75 -89 114 -106 87 -40 155 23 231 215 7 17 16 32 21
32 5 0 9 8 9 19 0 28 96 127 141 145 63 25 195 22 249 -7 24 -12 48 -31 54
-42 17 -30 35 -41 95 -60 31 -10 62 -20 70 -23 10 -4 12 1 7 16 -15 45 6 44
53 -1 l46 -46 228 -10 c126 -6 249 -11 273 -11 l45 0 -1 48 c-2 81 5 125 20
133 13 6 163 46 183 48 4 1 8 -10 9 -24z m-3559 -714 l6 -28 158 -6 c184 -6
256 -22 369 -78 85 -42 155 -103 207 -179 17 -25 35 -48 40 -51 5 -3 8 -9 7
-13 -2 -10 23 -76 30 -76 3 0 6 -8 6 -17 1 -10 9 -52 18 -93 26 -122 46 -110
-188 -110 l-205 0 -12 56 c-25 110 -102 198 -191 218 -26 6 -28 4 -28 -24 0
-20 6 -33 18 -37 9 -4 29 -19 44 -35 27 -27 31 -55 19 -129 -3 -17 -81 -59
-110 -59 -49 0 -101 35 -108 74 -15 70 -5 102 41 136 25 18 35 35 38 59 l4 33
-48 -4 c-27 -3 -54 -10 -59 -15 -6 -6 -10 -73 -11 -159 l0 -148 38 -32 c49
-43 60 -102 29 -151 -11 -18 -25 -33 -32 -33 -6 0 -13 -5 -15 -11 -2 -7 -22
-12 -43 -13 -30 -1 -49 6 -77 27 -71 54 -61 153 20 196 21 11 22 17 22 151 0
78 -4 140 -9 140 -17 0 -90 -92 -116 -144 -39 -79 -45 -139 -45 -420 0 -282 8
-343 54 -435 14 -26 41 -64 62 -85 38 -38 99 -70 115 -60 5 3 9 1 9 -4 0 -16
92 -24 175 -17 l75 7 49 63 49 62 7 106 7 107 -136 0 -136 0 0 145 0 145 83 0
84 0 58 -80 c56 -79 59 -81 89 -73 40 10 172 10 213 0 30 -8 33 -6 89 72 44
62 63 81 81 81 l23 0 0 -333 c0 -286 2 -336 16 -355 8 -12 20 -19 26 -16 7 4
8 2 4 -5 -5 -7 23 -49 69 -106 47 -59 70 -95 60 -95 -11 0 -15 -11 -15 -46 0
-38 -3 -45 -17 -42 -11 2 -20 16 -24 38 -7 42 -30 89 -56 111 -10 9 -38 37
-62 62 l-43 47 -58 -45 c-32 -25 -60 -45 -63 -45 -2 0 -7 18 -11 39 -7 43 -49
101 -63 88 -4 -5 -8 -27 -8 -50 0 -40 -2 -42 -30 -43 -34 0 -91 -10 -148 -25
-33 -9 -37 -13 -31 -32 4 -12 16 -35 26 -50 11 -16 18 -30 16 -33 -8 -7 -201
-34 -249 -34 -35 0 -49 -4 -54 -17 -6 -16 -7 -17 -18 -2 -8 11 -36 19 -82 24
-98 10 -208 40 -277 74 -33 17 -58 25 -57 18 3 -27 -3 -37 -31 -52 -43 -22
-121 -20 -148 5 -29 27 -39 87 -20 120 13 23 13 28 0 39 -10 10 -13 26 -9 56
4 23 2 46 -2 51 -34 35 -96 187 -107 261 -3 26 -8 57 -10 68 -3 11 -4 147 -4
302 0 288 8 371 45 473 22 62 78 159 115 200 18 19 37 42 43 50 21 26 107 92
160 121 29 16 44 29 35 29 -28 0 -21 29 10 41 15 6 34 15 42 20 38 23 97 48
120 52 14 2 28 5 31 6 4 0 9 -12 12 -28z m2210 -48 c20 -10 48 -13 88 -10 33
2 71 2 85 -1 22 -4 23 -6 10 -21 -8 -9 -49 -82 -91 -163 -63 -122 -81 -148
-98 -148 -12 0 -28 -9 -35 -20 -7 -11 -23 -20 -37 -20 -14 0 -30 9 -37 20 -12
19 -24 20 -165 20 l-152 0 20 45 c11 25 17 50 13 57 -4 6 -3 8 3 5 5 -3 22 22
37 56 58 131 78 167 94 168 54 3 92 10 127 24 44 16 92 12 138 -12z m-673
-369 c0 -16 -14 -28 -56 -49 -30 -15 -58 -25 -61 -22 -10 10 8 46 26 52 12 4
17 12 14 23 -4 15 2 18 36 18 35 -1 41 -4 41 -22z m-934 -539 c-11 -8 -27 -15
-36 -15 -9 0 -25 7 -36 15 -17 13 -15 14 36 14 51 0 53 -1 36 -14z m3424 -586
c0 -4 -13 -17 -30 -29 l-30 -21 0 57 0 58 30 -29 c17 -16 30 -32 30 -36z
m-2030 -104 c0 -38 -3 -45 -19 -45 -17 0 -20 -7 -19 -50 0 -39 4 -53 19 -61
13 -7 19 -21 19 -44 l0 -35 -70 0 -70 0 0 36 c0 27 5 37 20 41 17 5 20 14 20
59 0 47 -2 54 -20 54 -21 0 -21 2 -24 57 l-1 33 73 0 72 0 0 -45z m-600 -36
c-13 -24 -43 -22 -48 4 -3 13 3 17 28 17 28 0 30 -2 20 -21z m2797 -196 c-3
-2 -24 -3 -47 -1 l-42 3 43 31 44 30 3 -29 c2 -16 1 -31 -1 -34z m381 0 c22
-4 32 -11 32 -24 0 -16 -8 -19 -55 -19 -55 0 -55 0 -55 31 0 28 3 31 23 25 12
-4 37 -9 55 -13z m-2628 -1668 c7 -8 25 -15 41 -15 22 0 27 -4 26 -20 -1 -11
-4 -20 -8 -20 -3 0 -4 -11 -2 -24 7 -36 -28 -66 -75 -66 -41 0 -53 10 -85 67
-22 40 -22 43 8 43 14 0 31 10 42 25 21 28 35 31 53 10z m-877 -42 c-3 -31 -2
-35 7 -20 14 21 59 22 67 1 5 -15 7 -15 15 0 12 21 54 20 68 -1 9 -15 10 -13
8 12 -2 21 1 30 12 30 11 0 14 -8 11 -30 -3 -29 -2 -29 15 -14 11 9 31 17 47
17 25 0 27 -4 29 -42 l1 -41 4 41 c4 37 7 42 31 42 15 0 34 -7 43 -14 14 -13
17 -13 22 1 8 20 54 19 65 -1 8 -15 10 -15 15 0 4 9 15 16 26 16 10 0 21 7 25
15 3 8 10 15 16 15 7 0 10 -23 8 -62 l-3 -63 -30 3 c-16 2 -35 8 -42 13 -7 7
-14 6 -18 -1 -8 -14 -48 -13 -63 2 -9 9 -12 9 -12 0 0 -7 -7 -12 -15 -12 -10
0 -15 10 -15 30 0 17 -5 30 -11 30 -6 0 -9 -12 -7 -27 2 -21 -2 -29 -17 -31
-11 -3 -24 -10 -28 -18 -13 -22 -68 -18 -74 6 -3 11 -10 17 -16 13 -16 -10
-78 -5 -93 8 -10 8 -14 8 -14 0 0 -15 -53 -14 -68 1 -9 9 -12 9 -12 0 0 -7
-14 -12 -35 -12 -25 0 -37 6 -46 21 -15 29 3 69 31 69 11 0 20 6 20 14 0 8 8
17 18 19 9 3 17 5 17 6 1 0 -1 -16 -2 -36z m605 11 c5 -8 23 -16 41 -16 23 -1
35 -7 40 -22 8 -20 8 -20 20 2 13 25 31 29 31 7 0 -33 -42 -105 -61 -105 -21
0 -26 16 -7 22 7 3 9 12 4 24 -7 18 -8 18 -17 2 -7 -12 -22 -18 -44 -18 l-35
0 0 60 c0 59 10 75 28 44z m425 -2 c-3 -12 28 -17 76 -13 13 1 32 -6 42 -15
11 -9 19 -12 19 -6 0 6 9 16 20 22 15 8 24 6 40 -10 15 -15 20 -17 20 -5 0 22
59 20 77 -2 12 -16 13 -15 11 11 -2 17 2 31 10 33 8 3 13 -10 14 -44 l2 -48 3
48 c3 33 8 47 19 47 14 0 18 -11 14 -40 -1 -12 1 -13 11 -2 20 19 32 14 25
-12 -4 -16 0 -28 11 -37 14 -12 15 -12 9 -1 -7 11 -4 12 13 2 12 -6 19 -15 16
-21 -9 -13 -62 -11 -69 4 -5 10 -7 10 -12 0 -3 -7 -12 -13 -20 -13 -8 0 -14 6
-14 13 0 9 -2 9 -8 0 -4 -6 -14 -11 -22 -11 -45 3 -70 -3 -70 -17 0 -8 -4 -15
-10 -15 -5 0 -10 7 -10 15 0 10 -10 15 -34 15 -19 0 -38 5 -42 11 -4 8 -9 8
-17 0 -19 -19 -65 -13 -77 9 -6 11 -8 25 -4 32 4 6 1 9 -7 6 -8 -2 -15 -17
-17 -31 -4 -30 -31 -38 -33 -9 -1 16 -2 16 -6 0 -8 -31 -33 -21 -33 13 0 17
-5 40 -11 51 -6 12 -7 18 -1 14 5 -3 13 1 16 10 7 18 52 15 49 -4z m534 -28
c5 -15 7 -15 15 0 11 19 49 21 66 4 9 -9 12 -9 12 0 0 20 116 16 124 -4 12
-31 7 -74 -9 -74 -10 0 -15 10 -15 30 0 17 -4 30 -10 30 -5 0 -10 -13 -10 -30
0 -20 -5 -30 -15 -30 -10 0 -15 10 -15 30 0 17 -4 30 -10 30 -5 0 -10 -13 -10
-28 0 -28 -2 -29 -47 -30 -27 0 -53 4 -60 9 -7 7 -14 6 -18 -1 -8 -14 -48 -13
-63 2 -7 7 -12 21 -12 33 0 12 5 26 12 33 17 17 58 15 65 -4z"/>
<path d="M4537 3906 c-31 -7 -77 -9 -125 -4 -131 11 -206 10 -195 -4 5 -7 38
-101 73 -208 159 -495 163 -507 170 -474 8 35 40 94 53 94 4 0 17 9 29 19 42
40 132 38 195 -3 27 -18 75 -83 73 -101 0 -3 0 -13 1 -22 0 -15 2 -15 9 2 5
11 43 128 86 260 42 132 91 284 110 337 l33 97 -37 7 c-20 4 -86 3 -147 -3
-85 -8 -123 -7 -165 3 -65 16 -98 16 -163 0z"/>
<path d="M4061 3250 c-1 -49 5 -176 25 -535 3 -60 5 -206 5 -322 l0 -213 127
0 c70 0 150 -3 179 -6 l52 -7 -63 189 c-65 197 -81 233 -106 248 -26 16 -120
110 -120 120 0 5 7 18 16 28 16 17 18 17 50 -3 l33 -20 -9 28 c-14 48 -31 97
-40 118 -5 11 -13 36 -19 55 -8 28 -102 301 -124 360 -3 8 -6 -10 -6 -40z"/>
<path d="M4490 3067 c0 -4 11 -40 24 -80 13 -41 43 -132 65 -203 23 -71 45
-135 50 -142 5 -9 14 6 26 45 32 106 117 368 123 378 6 10 -21 -9 -46 -32 -12
-12 -75 -33 -97 -33 -22 0 -85 21 -97 33 -25 23 -48 39 -48 34z"/>
<path d="M1362 3440 c-27 -26 -28 -44 -2 -70 24 -24 48 -25 78 -4 27 18 29 55
4 77 -25 23 -54 21 -80 -3z"/>
<path d="M1188 3183 c-29 -34 -28 -51 3 -77 26 -22 34 -24 52 -14 48 25 54 65
14 93 -28 20 -51 19 -69 -2z"/>
<path d="M3100 345 c0 -8 7 -15 15 -15 8 0 15 7 15 15 0 8 -7 15 -15 15 -8 0
-15 -7 -15 -15z"/>
<path d="M2227 324 c-9 -9 4 -35 14 -28 5 3 9 12 9 20 0 14 -12 19 -23 8z"/>
<path d="M2510 315 c0 -8 5 -15 10 -15 6 0 10 7 10 15 0 8 -4 15 -10 15 -5 0
-10 -7 -10 -15z"/>
<path d="M2762 314 c4 -21 22 -23 26 -1 2 10 -3 17 -13 17 -10 0 -15 -6 -13
-16z"/>
<path d="M2387 299 c7 -7 15 -10 18 -7 3 3 -2 9 -12 12 -14 6 -15 5 -6 -5z"/>
<path d="M2890 310 c0 -11 5 -20 10 -20 6 0 10 9 10 20 0 11 -4 20 -10 20 -5
0 -10 -9 -10 -20z"/>
<path d="M3560 309 c0 -11 5 -17 10 -14 6 3 10 13 10 21 0 8 -4 14 -10 14 -5
0 -10 -9 -10 -21z"/>
<path d="M3800 316 c0 -22 13 -26 33 -11 16 11 16 13 1 19 -25 9 -34 7 -34 -8z"/>
<path d="M3885 320 c-8 -13 4 -32 16 -25 12 8 12 35 0 35 -6 0 -13 -4 -16 -10z"/>
</g>
</svg>
